<svg width="153" height="70" viewBox="0 0 153 70" fill="none" xmlns="http://www.w3.org/2000/svg">
<path d="M26.5 65C39.4787 65 50 54.4787 50 41.5C50 28.5213 39.4787 18 26.5 18C13.5213 18 3 28.5213 3 41.5C3 54.4787 13.5213 65 26.5 65Z" stroke="white" stroke-width="5" stroke-miterlimit="10"/>
<path d="M66.1976 65.27V53.5267H74.2964C76.4111 53.5267 78.3008 53.2342 79.9656 52.6493C81.6753 52.0194 83.1151 51.1421 84.2849 50.0172C85.4547 48.8474 86.3546 47.4526 86.9845 45.8328C87.6144 44.1681 87.9294 42.3009 87.9294 40.2312C87.9294 38.0715 87.6144 36.1818 86.9845 34.562C86.3546 32.8973 85.4547 31.525 84.2849 30.4451C83.1151 29.3203 81.6753 28.4879 79.9656 27.948C78.3008 27.3631 76.4111 27.0706 74.2964 27.0706H66.1976V15.3274H73.7565C78.2108 15.3274 82.1027 15.9573 85.4323 17.2171C88.8068 18.4769 91.6188 20.2316 93.8685 22.4813C96.1182 24.686 97.8054 27.2506 98.9303 30.1752C100.055 33.0997 100.618 36.2043 100.618 39.4888V40.9736C100.618 43.9881 100.055 46.9577 98.9303 49.8822C97.8054 52.7618 96.1182 55.3714 93.8685 57.7111C91.6188 60.0057 88.8068 61.8505 85.4323 63.2453C82.1027 64.5951 78.2108 65.27 73.7565 65.27H66.1976ZM54.9943 65.27V15.3274H67.5474V65.27H54.9943ZM94.0098 65L110.342 38.8139L110.477 39.8937L95.3596 15.7323H109.128L117.564 29.9727H119.319L127.485 15.7323H140.848L125.798 40.0287L125.595 38.9489L142.468 65H128.7L118.644 48.7349H116.889L107.373 65H94.0098Z" fill="white"/>
<path d="M41.634 45.0388L41.6332 45.1713C41.6327 45.238 41.618 45.304 41.5901 45.3649C41.5621 45.4258 41.5216 45.4802 41.4712 45.5243C41.4206 45.5685 41.3615 45.6016 41.2976 45.6212C41.2336 45.6409 41.1663 45.6467 41.1003 45.6383L30.7607 45.564C30.6297 45.5593 30.5013 45.6051 30.402 45.692C30.3028 45.779 30.2404 45.9004 30.2278 46.0311L30.035 56.7036C30.0345 56.7703 30.0198 56.8362 29.9919 56.8972C29.9639 56.958 29.9234 57.0124 29.873 57.0566C29.8225 57.1008 29.7633 57.1338 29.6994 57.1534C29.6354 57.1731 29.5682 57.179 29.5021 57.1706C29.3713 57.1678 29.2473 57.1151 29.1553 57.0231C29.0633 56.9311 29.0105 56.807 29.0078 56.6762L29.2065 44.9432C29.207 44.8764 29.2217 44.8105 29.2497 44.7496C29.2776 44.6887 29.3182 44.6344 29.3686 44.5902C29.4191 44.546 29.4782 44.513 29.5421 44.4933C29.6061 44.4736 29.6734 44.4678 29.7394 44.4762L41.1062 44.5778C41.2374 44.5715 41.3652 44.6159 41.4635 44.7017C41.5617 44.7875 41.6227 44.9082 41.634 45.0388ZM20.9367 48.0719L20.7893 56.5901C20.7888 56.6567 20.7741 56.7228 20.7462 56.7836C20.7182 56.8445 20.6777 56.8988 20.6272 56.943C20.5768 56.9872 20.5176 57.0203 20.4537 57.04C20.3897 57.0596 20.3224 57.0654 20.2564 57.057C20.1257 57.0543 20.0015 57.0015 19.9095 56.9095C19.8176 56.8176 19.7648 56.6934 19.762 56.5627L19.9035 49.1051C19.9008 48.9744 19.8481 48.8503 19.7561 48.7583C19.6641 48.6664 19.54 48.6136 19.4092 48.6108L12.218 48.552C12.0872 48.5493 11.9631 48.4965 11.8711 48.4045C11.7791 48.3125 11.7263 48.1884 11.7236 48.0576L11.7244 47.9251C11.7248 47.8584 11.7396 47.7924 11.7675 47.7315C11.7954 47.6706 11.836 47.6163 11.8864 47.5721C11.9369 47.5279 11.996 47.4948 12.06 47.4752C12.1239 47.4555 12.1912 47.4497 12.2573 47.4581L20.5091 47.511C20.6274 47.5525 20.7308 47.6276 20.8067 47.7272C20.8826 47.8268 20.9278 47.9465 20.9367 48.0719ZM24.103 44.9056L23.9043 56.6388C23.9038 56.7055 23.8891 56.7715 23.8612 56.8323C23.8332 56.8932 23.7927 56.9476 23.7422 56.9918C23.6918 57.036 23.6326 57.069 23.5687 57.0887C23.5047 57.1083 23.4374 57.1141 23.3714 57.1058C23.2407 57.103 23.1165 57.0502 23.0245 56.9582C22.9326 56.8663 22.8798 56.7421 22.877 56.6114L23.0698 45.9389C23.067 45.8082 23.0143 45.684 22.9224 45.592C22.8304 45.5001 22.7062 45.4473 22.5755 45.4446L12.2359 45.3703C12.1052 45.3676 11.981 45.3148 11.8891 45.2228C11.7971 45.1309 11.7443 45.0067 11.7416 44.876L11.7423 44.7434C11.7428 44.6768 11.7575 44.6108 11.7854 44.5499C11.8134 44.489 11.8539 44.4347 11.9044 44.3905C11.9548 44.3463 12.014 44.3132 12.0779 44.2936C12.1419 44.2739 12.2091 44.2681 12.2752 44.2765L23.642 44.378C23.7677 44.4004 23.8817 44.4648 23.9653 44.5606C24.049 44.6563 24.0975 44.7779 24.103 44.9056ZM27.6321 24.4377L27.3405 40.8774C27.3348 40.9472 27.3432 41.0173 27.3652 41.0836C27.3871 41.1498 27.4221 41.2109 27.4681 41.263C27.5142 41.3153 27.5703 41.3577 27.6332 41.3877C27.6961 41.4178 27.7645 41.4348 27.8344 41.4379L41.2227 41.5612C41.2926 41.5644 41.361 41.5815 41.4239 41.6115C41.4868 41.6416 41.5429 41.6839 41.589 41.7361C41.635 41.7884 41.6701 41.8494 41.6919 41.9156C41.7139 41.9819 41.7223 42.052 41.7166 42.1219L41.7159 42.2544C41.7258 42.3264 41.7187 42.3999 41.6953 42.4691C41.6719 42.5382 41.6328 42.6011 41.5811 42.6529C41.5293 42.7046 41.4664 42.7437 41.3973 42.7671C41.3281 42.7905 41.2546 42.7976 41.1826 42.7877L27.7943 42.6644C27.6568 42.6748 27.5272 42.7345 27.4292 42.8325C27.3312 42.9305 27.2715 43.0601 27.2611 43.1976L26.9695 59.6373C26.9794 59.7093 26.9723 59.7828 26.9489 59.8519C26.9255 59.9211 26.8864 59.984 26.8346 60.0357C26.7829 60.0875 26.72 60.1266 26.6508 60.15C26.5817 60.1734 26.5082 60.1805 26.4362 60.1706C26.3663 60.1675 26.2979 60.1504 26.235 60.1203C26.1721 60.0903 26.116 60.0479 26.0699 59.9957C26.0239 59.9435 25.9889 59.8824 25.9669 59.8161C25.945 59.7499 25.9366 59.6798 25.9422 59.6099L26.2338 43.1704C26.2395 43.1004 26.231 43.0304 26.2091 42.9642C26.1872 42.8979 26.1521 42.8368 26.1062 42.7846C26.0601 42.7323 26.004 42.69 25.9411 42.6599C25.8782 42.6299 25.8098 42.6128 25.7399 42.6097L12.3516 42.4864C12.2817 42.4833 12.2133 42.4662 12.1504 42.4362C12.0875 42.4061 12.0313 42.3638 11.9853 42.3115C11.9393 42.2593 11.9043 42.1982 11.8824 42.132C11.8604 42.0658 11.852 41.9956 11.8576 41.9258L11.8584 41.7932C11.8485 41.7213 11.8555 41.6478 11.8789 41.5786C11.9023 41.5095 11.9415 41.4465 11.9932 41.3948C12.0449 41.343 12.1079 41.3039 12.177 41.2805C12.2462 41.2571 12.3197 41.2501 12.3916 41.26L25.78 41.3832C25.9175 41.3728 26.0471 41.3131 26.1451 41.2151C26.2431 41.1171 26.3028 40.9875 26.3132 40.85L26.6049 24.4103C26.595 24.3384 26.602 24.2649 26.6254 24.1958C26.6488 24.1266 26.6879 24.0637 26.7396 24.0119C26.7914 23.9602 26.8543 23.921 26.9235 23.8976C26.9927 23.8742 27.0661 23.8672 27.1381 23.8771C27.2109 23.8707 27.2839 23.8814 27.3515 23.9082C27.419 23.9351 27.4791 23.9775 27.5271 24.0319C27.5751 24.0864 27.6095 24.1514 27.6277 24.2219C27.646 24.2923 27.6474 24.3662 27.6321 24.4377ZM41.5497 48.2208L41.5489 48.3533C41.5485 48.4201 41.5338 48.486 41.5059 48.5469C41.4779 48.6078 41.4374 48.6622 41.3868 48.7063C41.3364 48.7505 41.2773 48.7836 41.2133 48.8032C41.1494 48.8229 41.0821 48.8287 41.016 48.8203L33.8248 48.7614C33.6937 48.7567 33.5653 48.8026 33.4661 48.8895C33.3669 48.9764 33.3045 49.0978 33.2919 49.2284L33.1503 56.686C33.1499 56.7527 33.1352 56.8187 33.1073 56.8796C33.0793 56.9405 33.0388 56.9948 32.9883 57.039C32.9379 57.0832 32.8787 57.1163 32.8147 57.1359C32.7508 57.1555 32.6835 57.1614 32.6175 57.153C32.4867 57.1502 32.3626 57.0975 32.2706 57.0055C32.1787 56.9135 32.1259 56.7894 32.1231 56.6587L32.2706 48.1406C32.2711 48.0738 32.2858 48.0079 32.3137 47.947C32.3417 47.8861 32.3822 47.8318 32.4327 47.7876C32.4832 47.7434 32.5423 47.7103 32.6062 47.6907C32.6702 47.671 32.7374 47.6652 32.8035 47.6736L41.0553 47.7265C41.1861 47.7292 41.3102 47.782 41.4022 47.874C41.4942 47.9659 41.5469 48.09 41.5497 48.2208ZM24.4692 27.0074L24.2704 38.7405C24.2699 38.8072 24.2552 38.8732 24.2272 38.934C24.1993 38.995 24.1588 39.0492 24.1083 39.0935C24.0579 39.1377 23.9987 39.1708 23.9348 39.1904C23.8709 39.21 23.8035 39.2159 23.7375 39.2074L12.3707 39.1059C12.2399 39.1032 12.1158 39.0504 12.0238 38.9584C11.9319 38.8665 11.8791 38.7423 11.8763 38.6116L11.8771 38.479C11.8775 38.4123 11.8922 38.3463 11.9202 38.2855C11.9481 38.2246 11.9887 38.1702 12.0391 38.126C12.0896 38.0818 12.1487 38.0488 12.2127 38.0291C12.2767 38.0095 12.3439 38.0036 12.41 38.012L22.7496 38.0863C22.8805 38.091 23.009 38.0452 23.1082 37.9583C23.2074 37.8714 23.2698 37.75 23.2825 37.6193L23.4752 26.9468C23.4757 26.8801 23.4904 26.8141 23.5184 26.7532C23.5463 26.6923 23.5869 26.6379 23.6373 26.5938C23.6878 26.5496 23.7469 26.5165 23.8109 26.4969C23.8748 26.4772 23.9421 26.4714 24.0081 26.4798C24.1285 26.5126 24.2363 26.5801 24.3182 26.6739C24.4002 26.7676 24.4526 26.8835 24.4692 27.0074ZM30.5999 27.0722L30.4071 37.7448C30.4099 37.8755 30.4626 37.9996 30.5546 38.0916C30.6466 38.1835 30.7707 38.2363 30.9014 38.2391L41.241 38.3133C41.3718 38.316 41.4959 38.3689 41.5879 38.4608C41.6798 38.5528 41.7327 38.6769 41.7354 38.8077L41.7346 38.9402C41.7341 39.007 41.7194 39.0729 41.6915 39.1338C41.6635 39.1947 41.623 39.249 41.5726 39.2933C41.5221 39.3374 41.4629 39.3705 41.399 39.3901C41.3351 39.4098 41.2678 39.4156 41.2017 39.4072L29.8349 39.3056C29.7041 39.3029 29.58 39.2501 29.488 39.1581C29.396 39.0662 29.3433 38.9421 29.3406 38.8113L29.5393 27.0782C29.5398 27.0115 29.5545 26.9455 29.5825 26.8847C29.6104 26.8238 29.6509 26.7695 29.7014 26.7252C29.7518 26.6811 29.811 26.648 29.875 26.6284C29.9389 26.6087 30.0061 26.6029 30.0722 26.6113C30.1384 26.6021 30.2056 26.6072 30.2693 26.6261C30.333 26.6451 30.3919 26.6774 30.4418 26.7211C30.4918 26.7647 30.5317 26.8186 30.559 26.8792C30.5862 26.9397 30.6002 27.0055 30.5999 27.0722ZM21.3208 26.9921L21.1733 35.5101C21.1729 35.5769 21.1581 35.6429 21.1302 35.7037C21.1023 35.7646 21.0618 35.8189 21.0113 35.8631C20.9608 35.9074 20.9017 35.9404 20.8377 35.96C20.7738 35.9797 20.7065 35.9855 20.6405 35.9771L12.3886 35.9243C12.2579 35.9215 12.1337 35.8687 12.0418 35.7768C11.9498 35.6848 11.897 35.5607 11.8943 35.4299L11.895 35.2974C11.8955 35.2307 11.9102 35.1647 11.9382 35.1038C11.9661 35.0429 12.0066 34.9886 12.0571 34.9444C12.1076 34.9001 12.1667 34.8671 12.2307 34.8475C12.2946 34.8278 12.3618 34.822 12.4279 34.8304L19.6192 34.8892C19.7502 34.894 19.8787 34.8482 19.9779 34.7613C20.0771 34.6743 20.1394 34.5529 20.1521 34.4222L20.2936 26.9647C20.2941 26.898 20.3088 26.832 20.3367 26.7711C20.3647 26.7103 20.4052 26.6559 20.4556 26.6117C20.5061 26.5675 20.5653 26.5345 20.6292 26.5148C20.6932 26.4951 20.7605 26.4893 20.8265 26.4977C20.9572 26.5005 21.0814 26.5533 21.1733 26.6452C21.2653 26.7372 21.3181 26.8613 21.3208 26.9921ZM33.7153 27.0547L33.5737 34.5122C33.5765 34.6429 33.6293 34.7671 33.7212 34.8591C33.8131 34.951 33.9373 35.0038 34.068 35.0066L41.2593 35.0654C41.39 35.0681 41.5142 35.1209 41.6062 35.2129C41.6981 35.3049 41.7509 35.429 41.7537 35.5597L41.753 35.6923C41.7525 35.759 41.7378 35.825 41.7098 35.8859C41.6819 35.9467 41.6413 36.0011 41.5909 36.0453C41.5405 36.0895 41.4813 36.1225 41.4173 36.1421C41.3533 36.1618 41.2861 36.1677 41.22 36.1593L32.9682 36.1064C32.8375 36.1036 32.7133 36.0508 32.6214 35.9589C32.5295 35.867 32.4766 35.7428 32.4739 35.6121L32.6214 27.094C32.6218 27.0273 32.6365 26.9614 32.6644 26.9004C32.6924 26.8396 32.733 26.7852 32.7834 26.741C32.8338 26.6968 32.893 26.6638 32.957 26.6441C33.0209 26.6245 33.0882 26.6186 33.1543 26.627C33.4857 26.6251 33.7167 26.7896 33.7153 27.0547Z" fill="white" stroke="white" stroke-width="0.3"/>
<path d="M46.492 17V12.584H47.476V17H46.492ZM49.15 17L47.866 15.116H48.946L50.29 17H49.15ZM47.212 15.596V14.822H48.292C48.436 14.822 48.56 14.794 48.664 14.738C48.772 14.678 48.854 14.596 48.91 14.492C48.97 14.384 49 14.26 49 14.12C49 13.98 48.97 13.858 48.91 13.754C48.854 13.646 48.772 13.564 48.664 13.508C48.56 13.448 48.436 13.418 48.292 13.418H47.212V12.584H48.214C48.578 12.584 48.894 12.64 49.162 12.752C49.43 12.86 49.636 13.022 49.78 13.238C49.924 13.454 49.996 13.726 49.996 14.054V14.15C49.996 14.474 49.922 14.744 49.774 14.96C49.63 15.172 49.424 15.332 49.156 15.44C48.892 15.544 48.578 15.596 48.214 15.596H47.212Z" fill="white"/>
<circle cx="48" cy="15" r="4.5" stroke="white"/>
</svg>
